<mxfile host="app.diagrams.net" modified="2024-03-24T19:30:02.529Z" agent="Mozilla/5.0 (X11; Linux x86_64) AppleWebKit/537.36 (KHTML, like Gecko) Chrome/122.0.0.0 Safari/537.36" etag="yCf6SZjae4xe-Axzubt9" version="24.1.0" type="device">
  <diagram name="Страница — 1" id="jtPrFijy9eExjBplDtJ0">
    <mxGraphModel dx="1185" dy="674" grid="1" gridSize="10" guides="1" tooltips="1" connect="1" arrows="1" fold="1" page="1" pageScale="1" pageWidth="827" pageHeight="1169" math="0" shadow="0">
      <root>
        <mxCell id="0" />
        <mxCell id="1" parent="0" />
        <mxCell id="K_HrZTJ1Skn7flZNhY7t-2" value="BANK" style="rounded=1;whiteSpace=wrap;html=1;fillColor=#1ba1e2;fontColor=#ffffff;strokeColor=#006EAF;" parent="1" vertex="1">
          <mxGeometry x="80" y="510" width="120" height="60" as="geometry" />
        </mxCell>
        <mxCell id="K_HrZTJ1Skn7flZNhY7t-3" value="USER" style="rounded=1;whiteSpace=wrap;html=1;fillColor=#008a00;fontColor=#ffffff;strokeColor=#005700;" parent="1" vertex="1">
          <mxGeometry x="259" y="390" width="120" height="60" as="geometry" />
        </mxCell>
        <mxCell id="K_HrZTJ1Skn7flZNhY7t-4" value="PASSPORT" style="rounded=1;whiteSpace=wrap;html=1;fillColor=#f0a30a;fontColor=#000000;strokeColor=#BD7000;" parent="1" vertex="1">
          <mxGeometry x="439" y="380" width="120" height="60" as="geometry" />
        </mxCell>
        <mxCell id="K_HrZTJ1Skn7flZNhY7t-5" value="ACCOUNT" style="rounded=1;whiteSpace=wrap;html=1;fillColor=#76608a;fontColor=#ffffff;strokeColor=#432D57;" parent="1" vertex="1">
          <mxGeometry x="439" y="490" width="120" height="60" as="geometry" />
        </mxCell>
        <mxCell id="K_HrZTJ1Skn7flZNhY7t-6" value="ACCOUNTTYPE" style="rounded=1;whiteSpace=wrap;html=1;fillColor=#647687;fontColor=#ffffff;strokeColor=#314354;" parent="1" vertex="1">
          <mxGeometry x="620" y="550" width="120" height="60" as="geometry" />
        </mxCell>
        <mxCell id="K_HrZTJ1Skn7flZNhY7t-7" value="" style="edgeStyle=entityRelationEdgeStyle;fontSize=12;html=1;endArrow=ERoneToMany;startArrow=ERzeroToMany;rounded=0;entryX=0.995;entryY=0.307;entryDx=0;entryDy=0;exitX=0.009;exitY=0.305;exitDx=0;exitDy=0;entryPerimeter=0;exitPerimeter=0;" parent="1" source="K_HrZTJ1Skn7flZNhY7t-3" target="K_HrZTJ1Skn7flZNhY7t-2" edge="1">
          <mxGeometry width="100" height="100" relative="1" as="geometry">
            <mxPoint x="189" y="620" as="sourcePoint" />
            <mxPoint x="359" y="430" as="targetPoint" />
            <Array as="points">
              <mxPoint x="249" y="480" />
            </Array>
          </mxGeometry>
        </mxCell>
        <mxCell id="K_HrZTJ1Skn7flZNhY7t-8" value="" style="edgeStyle=entityRelationEdgeStyle;fontSize=12;html=1;endArrow=ERmandOne;startArrow=ERmandOne;rounded=0;entryX=0;entryY=0.5;entryDx=0;entryDy=0;exitX=1.001;exitY=0.324;exitDx=0;exitDy=0;exitPerimeter=0;" parent="1" source="K_HrZTJ1Skn7flZNhY7t-3" target="K_HrZTJ1Skn7flZNhY7t-4" edge="1">
          <mxGeometry width="100" height="100" relative="1" as="geometry">
            <mxPoint x="269" y="580" as="sourcePoint" />
            <mxPoint x="369" y="480" as="targetPoint" />
          </mxGeometry>
        </mxCell>
        <mxCell id="K_HrZTJ1Skn7flZNhY7t-9" value="" style="edgeStyle=entityRelationEdgeStyle;fontSize=12;html=1;endArrow=ERoneToMany;startArrow=ERmandOne;rounded=0;exitX=1;exitY=0.75;exitDx=0;exitDy=0;entryX=0.008;entryY=0.327;entryDx=0;entryDy=0;entryPerimeter=0;" parent="1" source="K_HrZTJ1Skn7flZNhY7t-3" target="K_HrZTJ1Skn7flZNhY7t-5" edge="1">
          <mxGeometry width="100" height="100" relative="1" as="geometry">
            <mxPoint x="379" y="550" as="sourcePoint" />
            <mxPoint x="439" y="640" as="targetPoint" />
            <Array as="points">
              <mxPoint x="443" y="810" />
              <mxPoint x="473" y="760" />
              <mxPoint x="453" y="800" />
              <mxPoint x="353" y="820" />
              <mxPoint x="353" y="810" />
              <mxPoint x="353" y="810" />
            </Array>
          </mxGeometry>
        </mxCell>
        <mxCell id="K_HrZTJ1Skn7flZNhY7t-10" value="" style="edgeStyle=entityRelationEdgeStyle;fontSize=12;html=1;endArrow=ERzeroToMany;startArrow=ERmandOne;rounded=0;exitX=-0.003;exitY=0.288;exitDx=0;exitDy=0;entryX=1;entryY=0.5;entryDx=0;entryDy=0;exitPerimeter=0;" parent="1" source="K_HrZTJ1Skn7flZNhY7t-6" target="K_HrZTJ1Skn7flZNhY7t-5" edge="1">
          <mxGeometry width="100" height="100" relative="1" as="geometry">
            <mxPoint x="509" y="790" as="sourcePoint" />
            <mxPoint x="609" y="690" as="targetPoint" />
            <Array as="points">
              <mxPoint x="599" y="800" />
              <mxPoint x="559" y="750" />
              <mxPoint x="559" y="780" />
            </Array>
          </mxGeometry>
        </mxCell>
        <mxCell id="K_HrZTJ1Skn7flZNhY7t-13" value="" style="edgeStyle=entityRelationEdgeStyle;fontSize=12;html=1;endArrow=ERzeroToMany;startArrow=ERmandOne;rounded=0;entryX=0;entryY=0.75;entryDx=0;entryDy=0;exitX=0.999;exitY=0.581;exitDx=0;exitDy=0;exitPerimeter=0;" parent="1" source="K_HrZTJ1Skn7flZNhY7t-2" target="K_HrZTJ1Skn7flZNhY7t-5" edge="1">
          <mxGeometry width="100" height="100" relative="1" as="geometry">
            <mxPoint x="209" y="550" as="sourcePoint" />
            <mxPoint x="270" y="620.02" as="targetPoint" />
            <Array as="points">
              <mxPoint x="230" y="580.02" />
              <mxPoint x="230" y="630" />
            </Array>
          </mxGeometry>
        </mxCell>
        <mxCell id="K_HrZTJ1Skn7flZNhY7t-14" value="" style="edgeStyle=entityRelationEdgeStyle;fontSize=12;html=1;endArrow=ERoneToMany;startArrow=ERmandOne;rounded=0;entryX=-0.001;entryY=0.726;entryDx=0;entryDy=0;entryPerimeter=0;exitX=0.997;exitY=0.813;exitDx=0;exitDy=0;exitPerimeter=0;" parent="1" source="K_HrZTJ1Skn7flZNhY7t-2" target="K_HrZTJ1Skn7flZNhY7t-6" edge="1">
          <mxGeometry width="100" height="100" relative="1" as="geometry">
            <mxPoint x="210" y="550" as="sourcePoint" />
            <mxPoint x="530" y="590" as="targetPoint" />
          </mxGeometry>
        </mxCell>
      </root>
    </mxGraphModel>
  </diagram>
</mxfile>
